<svg id="my-svg" width="100%" xmlns="http://www.w3.org/2000/svg" xmlns:xlink="http://www.w3.org/1999/xlink" class="flowchart" style="max-width: 1197.47px; background-color: white;" viewBox="0 0 1197.4739990234375 278" role="graphics-document document" aria-roledescription="flowchart-v2"><style>#my-svg{font-family:Arial;font-size:14px;fill:#000000;}@keyframes edge-animation-frame{from{stroke-dashoffset:0;}}@keyframes dash{to{stroke-dashoffset:0;}}#my-svg .edge-animation-slow{stroke-dasharray:9,5!important;stroke-dashoffset:900;animation:dash 50s linear infinite;stroke-linecap:round;}#my-svg .edge-animation-fast{stroke-dasharray:9,5!important;stroke-dashoffset:900;animation:dash 20s linear infinite;stroke-linecap:round;}#my-svg .error-icon{fill:#ffffff;}#my-svg .error-text{fill:#000000;stroke:#000000;}#my-svg .edge-thickness-normal{stroke-width:1px;}#my-svg .edge-thickness-thick{stroke-width:3.5px;}#my-svg .edge-pattern-solid{stroke-dasharray:0;}#my-svg .edge-thickness-invisible{stroke-width:0;fill:none;}#my-svg .edge-pattern-dashed{stroke-dasharray:3;}#my-svg .edge-pattern-dotted{stroke-dasharray:2;}#my-svg .marker{fill:#000000;stroke:#000000;}#my-svg .marker.cross{stroke:#000000;}#my-svg svg{font-family:Arial;font-size:14px;}#my-svg p{margin:0;}#my-svg .label{font-family:Arial;color:#000000;}#my-svg .cluster-label text{fill:#000000;}#my-svg .cluster-label span{color:#000000;}#my-svg .cluster-label span p{background-color:transparent;}#my-svg .label text,#my-svg span{fill:#000000;color:#000000;}#my-svg .node rect,#my-svg .node circle,#my-svg .node ellipse,#my-svg .node polygon,#my-svg .node path{fill:#ffffff;stroke:#000000;stroke-width:1px;}#my-svg .rough-node .label text,#my-svg .node .label text,#my-svg .image-shape .label,#my-svg .icon-shape .label{text-anchor:middle;}#my-svg .node .katex path{fill:#000;stroke:#000;stroke-width:1px;}#my-svg .rough-node .label,#my-svg .node .label,#my-svg .image-shape .label,#my-svg .icon-shape .label{text-align:center;}#my-svg .node.clickable{cursor:pointer;}#my-svg .root .anchor path{fill:#000000!important;stroke-width:0;stroke:#000000;}#my-svg .arrowheadPath{fill:#0b0b0b;}#my-svg .edgePath .path{stroke:#000000;stroke-width:2.0px;}#my-svg .flowchart-link{stroke:#000000;fill:none;}#my-svg .edgeLabel{background-color:#ffffff;text-align:center;}#my-svg .edgeLabel p{background-color:#ffffff;}#my-svg .edgeLabel rect{opacity:0.5;background-color:#ffffff;fill:#ffffff;}#my-svg .labelBkg{background-color:rgba(255, 255, 255, 0.5);}#my-svg .cluster rect{fill:#ffffff;stroke:hsl(0, 0%, 90%);stroke-width:1px;}#my-svg .cluster text{fill:#000000;}#my-svg .cluster span{color:#000000;}#my-svg div.mermaidTooltip{position:absolute;text-align:center;max-width:200px;padding:2px;font-family:Arial;font-size:12px;background:#ffffff;border:1px solid hsl(0, 0%, 90%);border-radius:2px;pointer-events:none;z-index:100;}#my-svg .flowchartTitleText{text-anchor:middle;font-size:18px;fill:#000000;}#my-svg rect.text{fill:none;stroke-width:0;}#my-svg .icon-shape,#my-svg .image-shape{background-color:#ffffff;text-align:center;}#my-svg .icon-shape p,#my-svg .image-shape p{background-color:#ffffff;padding:2px;}#my-svg .icon-shape rect,#my-svg .image-shape rect{opacity:0.5;background-color:#ffffff;fill:#ffffff;}#my-svg .label-icon{display:inline-block;height:1em;overflow:visible;vertical-align:-0.125em;}#my-svg .node .label-icon path{fill:currentColor;stroke:revert;stroke-width:revert;}#my-svg :root{--mermaid-font-family:"trebuchet ms",verdana,arial,sans-serif;}#my-svg .op rect{stroke:#000!important;stroke-width:2px!important;fill:#fff!important;color:#000!important;}#my-svg .op polygon{stroke:#000!important;stroke-width:2px!important;fill:#fff!important;color:#000!important;}#my-svg .op ellipse{stroke:#000!important;stroke-width:2px!important;fill:#fff!important;color:#000!important;}#my-svg .op circle{stroke:#000!important;stroke-width:2px!important;fill:#fff!important;color:#000!important;}#my-svg .op path{stroke:#000!important;stroke-width:2px!important;fill:#fff!important;color:#000!important;}#my-svg .op tspan{fill:#000!important;}</style><g><marker id="my-svg_flowchart-v2-pointEnd" class="marker flowchart-v2" viewBox="0 0 10 10" refX="5" refY="5" markerUnits="userSpaceOnUse" markerWidth="8" markerHeight="8" orient="auto"><path d="M 0 0 L 10 5 L 0 10 z" class="arrowMarkerPath" style="stroke-width: 1; stroke-dasharray: 1, 0;"/></marker><marker id="my-svg_flowchart-v2-pointStart" class="marker flowchart-v2" viewBox="0 0 10 10" refX="4.5" refY="5" markerUnits="userSpaceOnUse" markerWidth="8" markerHeight="8" orient="auto"><path d="M 0 5 L 10 10 L 10 0 z" class="arrowMarkerPath" style="stroke-width: 1; stroke-dasharray: 1, 0;"/></marker><marker id="my-svg_flowchart-v2-circleEnd" class="marker flowchart-v2" viewBox="0 0 10 10" refX="11" refY="5" markerUnits="userSpaceOnUse" markerWidth="11" markerHeight="11" orient="auto"><circle cx="5" cy="5" r="5" class="arrowMarkerPath" style="stroke-width: 1; stroke-dasharray: 1, 0;"/></marker><marker id="my-svg_flowchart-v2-circleStart" class="marker flowchart-v2" viewBox="0 0 10 10" refX="-1" refY="5" markerUnits="userSpaceOnUse" markerWidth="11" markerHeight="11" orient="auto"><circle cx="5" cy="5" r="5" class="arrowMarkerPath" style="stroke-width: 1; stroke-dasharray: 1, 0;"/></marker><marker id="my-svg_flowchart-v2-crossEnd" class="marker cross flowchart-v2" viewBox="0 0 11 11" refX="12" refY="5.2" markerUnits="userSpaceOnUse" markerWidth="11" markerHeight="11" orient="auto"><path d="M 1,1 l 9,9 M 10,1 l -9,9" class="arrowMarkerPath" style="stroke-width: 2; stroke-dasharray: 1, 0;"/></marker><marker id="my-svg_flowchart-v2-crossStart" class="marker cross flowchart-v2" viewBox="0 0 11 11" refX="-1" refY="5.2" markerUnits="userSpaceOnUse" markerWidth="11" markerHeight="11" orient="auto"><path d="M 1,1 l 9,9 M 10,1 l -9,9" class="arrowMarkerPath" style="stroke-width: 2; stroke-dasharray: 1, 0;"/></marker><g class="root"><g class="clusters"/><g class="edgePaths"><path d="M563.576,36.5L620.083,36.5L734.919,120.145" id="L_B0_M_0" class="edge-thickness-normal edge-pattern-solid edge-thickness-normal edge-pattern-solid flowchart-link" style=";" data-edge="true" data-et="edge" data-id="L_B0_M_0" data-points="W3sieCI6NTYzLjU3NTUzMTAwNTg1OTQsInkiOjM2LjV9LHsieCI6NjIwLjA4MzM0MzUwNTg1OTQsInkiOjM2LjV9LHsieCI6NzM4LjE1MjU2OTk2MzI1ODQsInkiOjEyMi41fV0=" marker-end="url(#my-svg_flowchart-v2-pointEnd)"/><path d="M882.904,148L926.24,148L987.943,168.016" id="L_M_B1_0" class="edge-thickness-normal edge-pattern-solid edge-thickness-normal edge-pattern-solid flowchart-link" style=";" data-edge="true" data-et="edge" data-id="L_M_B1_0" data-points="W3sieCI6ODgyLjkwMzY1NjAwNTg1OTQsInkiOjE0OH0seyJ4Ijo5MjYuMjM5NTkzNTA1ODU5NCwieSI6MTQ4fSx7IngiOjk5MS43NDc0MDYwMDU4NTk0LCJ5IjoxNjkuMjV9XQ==" marker-end="url(#my-svg_flowchart-v2-pointEnd)"/><path d="M595.083,148L620.083,148L663.419,148" id="L_R_M_0" class="edge-thickness-normal edge-pattern-solid edge-thickness-normal edge-pattern-solid flowchart-link" style=";" data-edge="true" data-et="edge" data-id="L_R_M_0" data-points="W3sieCI6NTk1LjA4MzM0MzUwNTg1OTQsInkiOjE0OH0seyJ4Ijo2MjAuMDgzMzQzNTA1ODU5NCwieSI6MTQ4fSx7IngiOjY2My40MTkyODEwMDU4NTk0LCJ5IjoxNDh9XQ=="/><path d="M285.583,37L310.083,36.5L366.591,36.5" id="L_Note1_B0_0" class="edge-thickness-normal edge-pattern-solid edge-thickness-normal edge-pattern-solid flowchart-link" style=";" data-edge="true" data-et="edge" data-id="L_Note1_B0_0" data-points="W3sieCI6Mjg1LjU4MzMzMzMzMzMzMzMsInkiOjM3fSx7IngiOjMxMC4wODMzNDM1MDU4NTk0LCJ5IjozNi41fSx7IngiOjM2Ni41OTExNTYwMDU4NTk0LCJ5IjozNi41fV0="/><path d="M588.22,252.5L620.083,252L735.628,173.5" id="L_Note2_M_0" class="edge-thickness-normal edge-pattern-solid edge-thickness-normal edge-pattern-solid flowchart-link" style=";" data-edge="true" data-et="edge" data-id="L_Note2_M_0" data-points="W3sieCI6NTg4LjIyMDA2MjI1NTg1OTQsInkiOjI1Mi41fSx7IngiOjYyMC4wODMzNDM1MDU4NTk0LCJ5IjoyNTJ9LHsieCI6NzM1LjYyNzg4OTc3OTg5NzgsInkiOjE3My41fV0="/><path d="M901.74,242L926.24,241.5L991.747,220.25" id="L_Note3_B1_0" class="edge-thickness-normal edge-pattern-solid edge-thickness-normal edge-pattern-solid flowchart-link" style=";" data-edge="true" data-et="edge" data-id="L_Note3_B1_0" data-points="W3sieCI6OTAxLjczOTU5MzUwNTg1OTQsInkiOjI0Mn0seyJ4Ijo5MjYuMjM5NTkzNTA1ODU5NCwieSI6MjQxLjV9LHsieCI6OTkxLjc0NzQwNjAwNTg1OTQsInkiOjIyMC4yNX1d"/></g><g class="edgeLabels"><g><rect class="background" style="stroke: none"/></g><g><rect class="background" style="stroke: none"/></g><g><rect class="background" style="stroke: none"/></g><g><rect class="background" style="stroke: none"/></g><g><rect class="background" style="stroke: none"/></g><g><rect class="background" style="stroke: none"/></g><g class="edgeLabel"><g class="label" data-id="L_B0_M_0" transform="translate(0, 0)"><text y="-10.1"><tspan class="text-outer-tspan" x="0" y="-0.1em" dy="1.1em"/></text></g></g><g class="edgeLabel"><g class="label" data-id="L_M_B1_0" transform="translate(0, 0)"><text y="-10.1"><tspan class="text-outer-tspan" x="0" y="-0.1em" dy="1.1em"/></text></g></g><g class="edgeLabel"><g class="label" data-id="L_R_M_0" transform="translate(0, 0)"><text y="-10.1"><tspan class="text-outer-tspan" x="0" y="-0.1em" dy="1.1em"/></text></g></g><g class="edgeLabel"><g class="label" data-id="L_Note1_B0_0" transform="translate(0, 0)"><text y="-10.1"><tspan class="text-outer-tspan" x="0" y="-0.1em" dy="1.1em"/></text></g></g><g class="edgeLabel"><g class="label" data-id="L_Note2_M_0" transform="translate(0, 0)"><text y="-10.1"><tspan class="text-outer-tspan" x="0" y="-0.1em" dy="1.1em"/></text></g></g><g class="edgeLabel"><g class="label" data-id="L_Note3_B1_0" transform="translate(0, 0)"><text y="-10.1"><tspan class="text-outer-tspan" x="0" y="-0.1em" dy="1.1em"/></text></g></g></g><g class="nodes"><g class="node default" id="flowchart-B0-0" transform="translate(465.0833435058594, 36.5)"><rect class="basic label-container" style="" x="-98.4921875" y="-25.5" width="196.984375" height="51"/><g class="label" style="" transform="translate(-68.4921875, -10.5)"><rect/><foreignObject width="136.984375" height="21"><div xmlns="http://www.w3.org/1999/xhtml" style="display: table-cell; white-space: nowrap; line-height: 1.5; max-width: 200px; text-align: center;"><span class="nodeLabel"><p>Local Block at epoch t</p></span></div></foreignObject></g></g><g class="node default" id="flowchart-M-1" transform="translate(773.1614685058594, 148)"><rect class="basic label-container" style="" x="-109.7421875" y="-25.5" width="219.484375" height="51"/><g class="label" style="" transform="translate(-79.7421875, -10.5)"><rect/><foreignObject width="159.484375" height="21"><div xmlns="http://www.w3.org/1999/xhtml" style="display: table-cell; white-space: nowrap; line-height: 1.5; max-width: 200px; text-align: center;"><span class="nodeLabel"><p>Apply Matrix Transform M</p></span></div></foreignObject></g></g><g class="node default" id="flowchart-B1-3" transform="translate(1070.3567810058594, 194.75)"><rect class="basic label-container" style="" x="-119.1171875" y="-25.5" width="238.234375" height="51"/><g class="label" style="" transform="translate(-89.1171875, -10.5)"><rect/><foreignObject width="178.234375" height="21"><div xmlns="http://www.w3.org/1999/xhtml" style="display: table-cell; white-space: nowrap; line-height: 1.5; max-width: 200px; text-align: center;"><span class="nodeLabel"><p>Local Block at epoch t plus 1</p></span></div></foreignObject></g></g><g class="node default" id="flowchart-R-4" transform="translate(465.0833435058594, 148)"><rect class="basic label-container" style="" x="-130" y="-36" width="260" height="72"/><g class="label" style="" transform="translate(-100, -21)"><rect/><foreignObject width="200" height="42"><div xmlns="http://www.w3.org/1999/xhtml" style="display: table; white-space: break-spaces; line-height: 1.5; max-width: 200px; text-align: center; width: 200px;"><span class="nodeLabel"><p>Only local neighborhood is read and written</p></span></div></foreignObject></g></g><g class="node default" id="flowchart-Note1-6" transform="translate(146.5416717529297, 36.5)"><g class="basic label-container"><path d="M-124.29166666666666 -28.5 C-98.30827529550382 -28.5, -72.324883924341 -28.5, 0 -28.5 C26.1046603011362 -28.5, 52.2093206022724 -28.5, 124.29166666666666 -28.5 C129.7713490703914 -17.540635192550475, 135.2510314741162 -6.581270385100954, 138.54166666666666 0 C133.3541811019424 10.374971129448484, 128.16669553721817 20.74994225889697, 124.29166666666666 28.5 C90.9061693727241 28.5, 57.52067207878153 28.5, 0 28.5 C-39.92247122098453 28.5, -79.84494244196905 28.5, -124.29166666666666 28.5 C-127.73299247380064 21.61734838573203, -131.17431828093464 14.734696771464058, -138.54166666666666 0 C-135.29856948776873 -6.486194357795844, -132.0554723088708 -12.972388715591688, -124.29166666666666 -28.5" stroke="none" stroke-width="0" fill="#ffffff" style=""/><path d="M-124.29166666666666 -28.5 C-81.14376650751956 -28.5, -37.99586634837247 -28.5, 0 -28.5 M-124.29166666666666 -28.5 C-77.72656903096231 -28.5, -31.161471395257962 -28.5, 0 -28.5 M0 -28.5 C27.408217320006017 -28.5, 54.816434640012034 -28.5, 124.29166666666666 -28.5 M0 -28.5 C32.922088012895834 -28.5, 65.84417602579167 -28.5, 124.29166666666666 -28.5 M124.29166666666666 -28.5 C128.38382335500185 -20.31568662332961, 132.47598004333705 -12.13137324665922, 138.54166666666666 0 M124.29166666666666 -28.5 C128.86197420507415 -19.359384923185026, 133.43228174348164 -10.218769846370048, 138.54166666666666 0 M138.54166666666666 0 C132.9466572167245 11.190018899884302, 127.35164776678235 22.380037799768605, 124.29166666666666 28.5 M138.54166666666666 0 C134.06437824313883 8.95457684705562, 129.58708981961104 17.90915369411124, 124.29166666666666 28.5 M124.29166666666666 28.5 C82.4823339182295 28.5, 40.67300116979236 28.5, 0 28.5 M124.29166666666666 28.5 C81.36149805250706 28.5, 38.43132943834746 28.5, 0 28.5 M0 28.5 C-36.7958881515607 28.5, -73.5917763031214 28.5, -124.29166666666666 28.5 M0 28.5 C-36.76137084725342 28.5, -73.52274169450683 28.5, -124.29166666666666 28.5 M-124.29166666666666 28.5 C-128.75051482869486 19.582303675943564, -133.2093629907231 10.664607351887131, -138.54166666666666 0 M-124.29166666666666 28.5 C-129.32441408938985 18.43450515455364, -134.357161512113 8.369010309107281, -138.54166666666666 0 M-138.54166666666666 0 C-135.1578840656376 -6.76756520205809, -131.77410146460858 -13.53513040411618, -124.29166666666666 -28.5 M-138.54166666666666 0 C-133.29014399517092 -10.503045342991463, -128.0386213236752 -21.006090685982926, -124.29166666666666 -28.5" stroke="#000000" stroke-width="1.3" fill="none" stroke-dasharray="0 0" style=""/></g><g class="label" style="" transform="translate(-100, -21)"><rect/><foreignObject width="200" height="42"><div xmlns="http://www.w3.org/1999/xhtml" style="display: table; white-space: break-spaces; line-height: 1.5; max-width: 200px; text-align: center; width: 200px;"><span class="nodeLabel"><p>Local block transformation using matrix M</p></span></div></foreignObject></g></g><g class="node default" id="flowchart-Note2-8" transform="translate(465.0833435058594, 252)"><g class="basic label-container"><path d="M-113.63671875 -18 C-90.56236332922072 -18, -67.48800790844143 -18, 0 -18 C42.25438321989145 -18, 84.5087664397829 -18, 113.63671875 -18 C115.50836053258338 -14.256716434833248, 117.38000231516675 -10.513432869666495, 122.63671875 0 C120.44772845537992 4.377980589240171, 118.25873816075983 8.755961178480343, 113.63671875 18 C86.7178211587716 18, 59.798923567543206 18, 0 18 C-27.419870342783177 18, -54.839740685566355 18, -113.63671875 18 C-116.15774459163576 12.957948316728471, -118.67877043327152 7.915896633456942, -122.63671875 0 C-120.42052570879531 -4.432386082409388, -118.2043326675906 -8.864772164818776, -113.63671875 -18" stroke="none" stroke-width="0" fill="#ffffff" style=""/><path d="M-113.63671875 -18 C-82.87340445609289 -18, -52.110090162185784 -18, 0 -18 M-113.63671875 -18 C-76.83112594244258 -18, -40.02553313488518 -18, 0 -18 M0 -18 C40.602241849761384 -18, 81.20448369952277 -18, 113.63671875 -18 M0 -18 C36.19631625626373 -18, 72.39263251252746 -18, 113.63671875 -18 M113.63671875 -18 C115.96684835539713 -13.339740789205749, 118.29697796079425 -8.679481578411497, 122.63671875 0 M113.63671875 -18 C116.15565786463858 -12.962121770722838, 118.67459697927715 -7.924243541445678, 122.63671875 0 M122.63671875 0 C119.91946558693712 5.434506326125744, 117.20221242387426 10.869012652251488, 113.63671875 18 M122.63671875 0 C119.31489569025227 6.643646119495469, 115.99307263050453 13.287292238990938, 113.63671875 18 M113.63671875 18 C81.13086843021175 18, 48.6250181104235 18, 0 18 M113.63671875 18 C74.01583543585375 18, 34.394952121707476 18, 0 18 M0 18 C-36.56004049995459 18, -73.12008099990918 18, -113.63671875 18 M0 18 C-26.012912637998504 18, -52.02582527599701 18, -113.63671875 18 M-113.63671875 18 C-115.5729351509367 14.127567198126606, -117.5091515518734 10.255134396253212, -122.63671875 0 M-113.63671875 18 C-116.83682392263353 11.599789654732952, -120.03692909526706 5.1995793094659035, -122.63671875 0 M-122.63671875 0 C-120.25384608781476 -4.7657453243704815, -117.87097342562951 -9.531490648740963, -113.63671875 -18 M-122.63671875 0 C-119.15474817887143 -6.963941142257136, -115.67277760774286 -13.927882284514272, -113.63671875 -18" stroke="#000000" stroke-width="1.3" fill="none" stroke-dasharray="0 0" style=""/></g><g class="label" style="" transform="translate(-86.3671875, -10.5)"><rect/><foreignObject width="172.734375" height="21"><div xmlns="http://www.w3.org/1999/xhtml" style="display: table-cell; white-space: nowrap; line-height: 1.5; max-width: 200px; text-align: center;"><span class="nodeLabel"><p>Matrix M is fixed and known</p></span></div></foreignObject></g></g><g class="node default" id="flowchart-Note3-10" transform="translate(773.1614685058594, 241.5)"><g class="basic label-container"><path d="M-119.078125 -18 C-84.91431122750002 -18, -50.750497455000044 -18, 0 -18 C45.47953861094348 -18, 90.95907722188696 -18, 119.078125 -18 C121.5828149242084 -12.99062015158319, 124.08750484841681 -7.981240303166379, 128.078125 0 C126.1299302481973 3.8963895036053966, 124.18173549639461 7.792779007210793, 119.078125 18 C71.59250135133793 18, 24.10687770267586 18, 0 18 C-44.991959859122666 18, -89.98391971824533 18, -119.078125 18 C-121.19880344844331 13.758643103113382, -123.31948189688661 9.517286206226762, -128.078125 0 C-125.8006113510261 -4.555027297947781, -123.52309770205221 -9.110054595895562, -119.078125 -18" stroke="none" stroke-width="0" fill="#ffffff" style=""/><path d="M-119.078125 -18 C-86.19692239906708 -18, -53.315719798134154 -18, 0 -18 M-119.078125 -18 C-89.44168701147463 -18, -59.805249022949255 -18, 0 -18 M0 -18 C43.74491330818659 -18, 87.48982661637318 -18, 119.078125 -18 M0 -18 C28.472415125632967 -18, 56.944830251265934 -18, 119.078125 -18 M119.078125 -18 C121.70824811166952 -12.739753776660955, 124.33837122333904 -7.479507553321911, 128.078125 0 M119.078125 -18 C121.59272927803701 -12.970791443925968, 124.10733355607402 -7.941582887851938, 128.078125 0 M128.078125 0 C125.79437309872961 4.567503802540774, 123.51062119745923 9.135007605081547, 119.078125 18 M128.078125 0 C125.11269613446333 5.930857731073322, 122.14726726892668 11.861715462146645, 119.078125 18 M119.078125 18 C75.60227524255029 18, 32.12642548510057 18, 0 18 M119.078125 18 C87.49503936900425 18, 55.91195373800848 18, 0 18 M0 18 C-42.18483360161604 18, -84.36966720323208 18, -119.078125 18 M0 18 C-25.176198261437612 18, -50.352396522875225 18, -119.078125 18 M-119.078125 18 C-122.11579426636119 11.924661467277629, -125.15346353272237 5.849322934555257, -128.078125 0 M-119.078125 18 C-121.05748065884829 14.041288682303417, -123.03683631769658 10.082577364606834, -128.078125 0 M-128.078125 0 C-125.1424596447237 -5.871330710552585, -122.20679428944742 -11.74266142110517, -119.078125 -18 M-128.078125 0 C-125.52912617215803 -5.097997655683948, -122.98012734431605 -10.195995311367897, -119.078125 -18" stroke="#000000" stroke-width="1.3" fill="none" stroke-dasharray="0 0" style=""/></g><g class="label" style="" transform="translate(-91.03125, -10.5)"><rect/><foreignObject width="182.0625" height="21"><div xmlns="http://www.w3.org/1999/xhtml" style="display: table-cell; white-space: nowrap; line-height: 1.5; max-width: 200px; text-align: center;"><span class="nodeLabel"><p>Matrix M is applied modulo m</p></span></div></foreignObject></g></g></g></g></g></svg>